<mxfile host="app.diagrams.net" modified="2024-01-14T11:28:12.657Z" agent="Mozilla/5.0 (Windows NT 10.0; Win64; x64) AppleWebKit/537.36 (KHTML, like Gecko) Chrome/120.0.0.0 Safari/537.36" version="22.1.18" etag="eOI_z5UkA8VCrn9cAHb6" type="github">
  <diagram name="Seite-1" id="1gigDWmgY16nIXidn-Pi">
    <mxGraphModel>
      <root>
        <mxCell id="0" />
        <mxCell id="1" parent="0" />
      </root>
    </mxGraphModel>
  </diagram>
</mxfile>
